# xmcd CD database file
#
# Track frame offsets:
#	150
#	12076
#	28250
#	44291
#	86593
#	110991
#	131851
#	152399
#	174708
#	196799
#	210446
#	229880
#	245397
#	263322
#	307412
#	325108
#
# Disc length: 4599 seconds
#
# Revision: 0
# Processed by: cddbd v1.5.2PL0 Copyright (c) Steve Scherf et al.
# Submitted via: CDex 1.51
#
DISCID=d611f510
DTITLE=Jacques Loussier Trio - Play Bach
DYEAR=1900
DGENRE=Jazz
TTITLE0=01-Invenzione A 2 Voci N. 8 In Fa Maggiore BWV 779
TTITLE1=02-Aria Sulla Quarta Corda Dalla Suite Per Orchestra N. 3
TTITLE2=03-Siciliano In Sol Minore, Dalla Sonata Per Flauto In Mi Bemolle Maggiore BWV1031
TTITLE3=04-Toccata E Fuga In Re Minore BWV 564
TTITLE4=05-Preludio N. 1 In Do Maggiore BWV 846, Dal Clavicembalo Ben Temperato Vol. 1
TTITLE5=06-Preludio N. 2 In Do Minore BWV 847, Dal Clavicembalo Ben Temperato Vol. 1
TTITLE6=07-Corale 'Jesus Bleibet Meine Freude' Dalla Cantata 'Herz Und Mund Und Tat Und Leben' BWV 147
TTITLE7=08-Concerto Italiano In Fa Maggiore BWV 971-Allegro
TTITLE8=09-Concerto Italiano In Fa Maggiore BWV 971-Adagio
TTITLE9=10-Concerto Italiano In Fa Maggiore BWV 971-Presto
TTITLE10=11-Aria Corale 'Zion Hort Die Wachter Singen' Dalla Cantata 'Wachet Auf, Ruft Uns Die Stimme' BWV 140
TTITLE11=12-Fantasia In Do Minore BWV 906
TTITLE12=13-Menuetto In Sol Maggiore BWV Anh. 114, Dal Quaderno Di Anna Magdalena Bach
TTITLE13=14-Concerto In Re Minore Per Clavicembalo E Archi BWV 1052-Allegro Risoluto
TTITLE14=15-Concerto In Re Minore Per Clavicembalo E Archi BWV 1052-Adagio
TTITLE15=16-Concerto In Re Minore Per Clavicembalo E Archi BWV 1052-Allegro Moderato
EXTD=
EXTT0=
EXTT1=
EXTT2=
EXTT3=
EXTT4=
EXTT5=
EXTT6=
EXTT7=
EXTT8=
EXTT9=
EXTT10=
EXTT11=
EXTT12=
EXTT13=
EXTT14=
EXTT15=
PLAYORDER=
